<?xml version="1.0" encoding="UTF-8" standalone="no"?>
<!-- Created with Inkscape (http://www.inkscape.org/) -->

<svg
   xmlns:dc="http://purl.org/dc/elements/1.1/"
   xmlns:cc="http://creativecommons.org/ns#"
   xmlns:rdf="http://www.w3.org/1999/02/22-rdf-syntax-ns#"
   xmlns:svg="http://www.w3.org/2000/svg"
   xmlns="http://www.w3.org/2000/svg"
   xmlns:sodipodi="http://sodipodi.sourceforge.net/DTD/sodipodi-0.dtd"
   xmlns:inkscape="http://www.inkscape.org/namespaces/inkscape"
   width="210mm"
   height="297mm"
   viewBox="0 0 210 297"
   version="1.1"
   id="svg8"
   inkscape:version="0.92.0 r15299"
   sodipodi:docname="drawing.svg">
  <defs
     id="defs2">
    <clipPath
       id="clipPath3696"
       clipPathUnits="userSpaceOnUse">
      <path
         inkscape:connector-curvature="0"
         id="path3694"
         d="M 0,648 H 828 V 0 H 0 Z" />
    </clipPath>
  </defs>
  <sodipodi:namedview
     id="base"
     pagecolor="#ffffff"
     bordercolor="#666666"
     borderopacity="1.0"
     inkscape:pageopacity="0.0"
     inkscape:pageshadow="2"
     inkscape:zoom="0.35"
     inkscape:cx="400"
     inkscape:cy="560"
     inkscape:document-units="mm"
     inkscape:current-layer="layer1"
     showgrid="false"
     inkscape:window-width="2498"
     inkscape:window-height="1417"
     inkscape:window-x="2102"
     inkscape:window-y="-8"
     inkscape:window-maximized="1" />
  <metadata
     id="metadata5">
    <rdf:RDF>
      <cc:Work
         rdf:about="">
        <dc:format>image/svg+xml</dc:format>
        <dc:type
           rdf:resource="http://purl.org/dc/dcmitype/StillImage" />
        <dc:title></dc:title>
      </cc:Work>
    </rdf:RDF>
  </metadata>
  <g
     inkscape:label="Layer 1"
     inkscape:groupmode="layer"
     id="layer1">
    <g
       transform="matrix(0.35277777,0,0,-0.35277777,-48.610231,234.0761)"
       inkscape:label="CV wellness Center logo"
       id="g3688">
      <g
         id="g3690">
        <g
           clip-path="url(#clipPath3696)"
           id="g3692">
          <g
             transform="translate(298.9234,382.2659)"
             id="g3698">
            <path
               inkscape:connector-curvature="0"
               id="path3700"
               style="fill:#231f20;fill-opacity:1;fill-rule:nonzero;stroke:none"
               d="M 0,0 8.267,-2.499 C 7.711,-4.817 6.837,-6.754 5.643,-8.308 4.449,-9.863 2.967,-11.036 1.197,-11.827 c -1.77,-0.792 -4.022,-1.187 -6.757,-1.187 -3.318,0 -6.028,0.482 -8.131,1.446 -2.103,0.964 -3.918,2.66 -5.445,5.088 -1.527,2.427 -2.291,5.535 -2.291,9.322 0,5.05 1.344,8.931 4.03,11.643 2.686,2.712 6.486,4.068 11.4,4.068 3.845,0 6.868,-0.778 9.068,-2.332 2.2,-1.555 3.835,-3.943 4.904,-7.163 L -0.354,7.205 c -0.292,0.929 -0.597,1.61 -0.916,2.04 -0.528,0.722 -1.173,1.277 -1.937,1.666 -0.763,0.389 -1.617,0.583 -2.561,0.583 -2.138,0 -3.776,-0.86 -4.914,-2.579 -0.861,-1.276 -1.291,-3.279 -1.291,-6.01 0,-3.384 0.513,-5.703 1.541,-6.957 1.027,-1.255 2.471,-1.882 4.331,-1.882 1.804,0 3.168,0.506 4.092,1.52 C -1.086,-3.401 -0.416,-1.93 0,0" />
          </g>
          <path
             inkscape:connector-curvature="0"
             id="path3702"
             style="fill:#231f20;fill-opacity:1;fill-rule:nonzero;stroke:none"
             d="m 311.958,378.268 h 9.058 v -8.496 h -9.058 z" />
          <g
             transform="translate(323.7024,400.2983)"
             id="g3704">
            <path
               inkscape:connector-curvature="0"
               id="path3706"
               style="fill:#231f20;fill-opacity:1;fill-rule:nonzero;stroke:none"
               d="M 0,0 H 9.861 L 16.731,-21.968 23.514,0 h 9.573 L 21.753,-30.526 H 11.529 Z" />
          </g>
          <path
             inkscape:connector-curvature="0"
             id="path3708"
             style="fill:#231f20;fill-opacity:1;fill-rule:nonzero;stroke:none"
             d="m 353.874,378.268 h 9.058 v -8.496 h -9.058 z" />
          <g
             transform="translate(379.6946,400.2983)"
             id="g3710">
            <path
               inkscape:connector-curvature="0"
               id="path3712"
               style="fill:#231f20;fill-opacity:1;fill-rule:nonzero;stroke:none"
               d="M 0,0 H 8.959 L 12.185,-17.089 16.906,0 h 8.927 L 30.565,-17.066 33.795,0 h 8.912 l -6.729,-30.526 h -9.249 l -5.355,19.219 -5.333,-19.219 h -9.25 z" />
          </g>
          <g
             transform="translate(439.7472,382.7864)"
             id="g3714">
            <path
               inkscape:connector-curvature="0"
               id="path3716"
               style="fill:#231f20;fill-opacity:1;fill-rule:nonzero;stroke:none"
               d="M 0,0 C -0.167,1.638 -0.608,2.811 -1.322,3.519 -2.037,4.227 -2.978,4.581 -4.144,4.581 -5.49,4.581 -6.566,4.046 -7.371,2.978 -7.885,2.311 -8.211,1.319 -8.35,0 Z M 8.621,-4.06 H -8.371 c 0.153,-1.361 0.521,-2.374 1.104,-3.041 0.819,-0.957 1.888,-1.436 3.207,-1.436 0.832,0 1.624,0.208 2.373,0.624 0.458,0.264 0.951,0.729 1.479,1.396 l 8.35,-0.771 c -1.277,-2.221 -2.818,-3.814 -4.623,-4.779 -1.805,-0.964 -4.394,-1.447 -7.767,-1.447 -2.929,0 -5.233,0.413 -6.913,1.239 -1.68,0.826 -3.071,2.138 -4.175,3.936 -1.103,1.797 -1.655,3.911 -1.655,6.34 0,3.457 1.107,6.254 3.321,8.392 2.214,2.137 5.272,3.206 9.172,3.206 3.165,0 5.664,-0.479 7.496,-1.436 C 4.831,7.205 6.226,5.816 7.184,3.998 8.142,2.179 8.621,-0.187 8.621,-3.103 Z" />
          </g>
          <path
             inkscape:connector-curvature="0"
             id="path3718"
             style="fill:#231f20;fill-opacity:1;fill-rule:nonzero;stroke:none"
             d="m 452.553,400.298 h 8.496 v -30.526 h -8.496 z" />
          <path
             inkscape:connector-curvature="0"
             id="path3720"
             style="fill:#231f20;fill-opacity:1;fill-rule:nonzero;stroke:none"
             d="m 466.754,400.298 h 8.496 v -30.526 h -8.496 z" />
          <g
             transform="translate(480.6637,391.8859)"
             id="g3722">
            <path
               inkscape:connector-curvature="0"
               id="path3724"
               style="fill:#231f20;fill-opacity:1;fill-rule:nonzero;stroke:none"
               d="m 0,0 h 7.892 v -3.602 c 1.18,1.471 2.374,2.523 3.581,3.154 1.208,0.632 2.679,0.948 4.415,0.948 2.346,0 4.181,-0.698 5.508,-2.093 1.325,-1.395 1.988,-3.55 1.988,-6.465 v -14.056 h -8.517 v 12.161 c 0,1.388 -0.256,2.37 -0.77,2.946 -0.514,0.576 -1.236,0.864 -2.166,0.864 -1.027,0 -1.86,-0.389 -2.498,-1.166 -0.639,-0.777 -0.958,-2.172 -0.958,-4.185 v -10.62 H 0 Z" />
          </g>
          <g
             transform="translate(525.0368,382.7864)"
             id="g3726">
            <path
               inkscape:connector-curvature="0"
               id="path3728"
               style="fill:#231f20;fill-opacity:1;fill-rule:nonzero;stroke:none"
               d="M 0,0 C -0.167,1.638 -0.608,2.811 -1.322,3.519 -2.037,4.227 -2.978,4.581 -4.144,4.581 -5.49,4.581 -6.566,4.046 -7.371,2.978 -7.885,2.311 -8.211,1.319 -8.35,0 Z M 8.621,-4.06 H -8.371 c 0.153,-1.361 0.521,-2.374 1.104,-3.041 0.819,-0.957 1.888,-1.436 3.207,-1.436 0.833,0 1.624,0.208 2.373,0.624 0.458,0.264 0.951,0.729 1.479,1.396 l 8.35,-0.771 c -1.277,-2.221 -2.818,-3.814 -4.623,-4.779 -1.805,-0.964 -4.394,-1.447 -7.767,-1.447 -2.929,0 -5.233,0.413 -6.913,1.239 -1.68,0.826 -3.071,2.138 -4.175,3.936 -1.103,1.797 -1.655,3.911 -1.655,6.34 0,3.457 1.107,6.254 3.321,8.392 2.214,2.137 5.272,3.206 9.172,3.206 3.165,0 5.664,-0.479 7.496,-1.436 C 4.831,7.205 6.226,5.816 7.184,3.998 8.142,2.179 8.621,-0.187 8.621,-3.103 Z" />
          </g>
          <g
             transform="translate(536.052,375.9149)"
             id="g3730">
            <path
               inkscape:connector-curvature="0"
               id="path3732"
               style="fill:#231f20;fill-opacity:1;fill-rule:nonzero;stroke:none"
               d="m 0,0 8.412,0.791 c 0.347,-0.999 0.833,-1.714 1.458,-2.144 0.625,-0.431 1.458,-0.646 2.499,-0.646 1.138,0 2.019,0.242 2.644,0.728 0.486,0.36 0.729,0.81 0.729,1.351 0,0.61 -0.319,1.081 -0.958,1.414 C 14.326,1.729 13.111,2.02 11.14,2.367 8.197,2.88 6.153,3.355 5.008,3.792 3.863,4.229 2.898,4.967 2.114,6.007 1.329,7.047 0.937,8.233 0.937,9.564 c 0,1.457 0.423,2.712 1.27,3.766 0.847,1.054 2.013,1.841 3.498,2.36 1.486,0.52 3.478,0.781 5.977,0.781 2.637,0 4.584,-0.202 5.84,-0.604 1.256,-0.403 2.304,-1.028 3.145,-1.874 0.839,-0.847 1.537,-1.992 2.092,-3.436 L 14.722,9.766 c -0.209,0.708 -0.556,1.228 -1.042,1.562 -0.666,0.444 -1.471,0.666 -2.415,0.666 -0.958,0 -1.655,-0.17 -2.092,-0.51 -0.438,-0.339 -0.657,-0.752 -0.657,-1.237 0,-0.54 0.278,-0.949 0.833,-1.226 0.556,-0.278 1.763,-0.527 3.624,-0.749 2.818,-0.319 4.914,-0.763 6.288,-1.331 1.374,-0.569 2.426,-1.38 3.155,-2.434 0.729,-1.054 1.093,-2.212 1.093,-3.474 0,-1.276 -0.385,-2.517 -1.156,-3.723 -0.77,-1.207 -1.985,-2.167 -3.644,-2.881 -1.659,-0.714 -3.918,-1.071 -6.778,-1.071 -4.039,0 -6.916,0.575 -8.63,1.728 C 1.586,-3.762 0.486,-2.124 0,0" />
          </g>
          <g
             transform="translate(562.1012,375.9149)"
             id="g3734">
            <path
               inkscape:connector-curvature="0"
               id="path3736"
               style="fill:#231f20;fill-opacity:1;fill-rule:nonzero;stroke:none"
               d="m 0,0 8.412,0.791 c 0.347,-0.999 0.833,-1.714 1.458,-2.144 0.625,-0.431 1.458,-0.646 2.499,-0.646 1.138,0 2.019,0.242 2.644,0.728 0.486,0.36 0.729,0.81 0.729,1.351 0,0.61 -0.319,1.081 -0.958,1.414 C 14.326,1.729 13.111,2.02 11.14,2.367 8.197,2.88 6.153,3.355 5.008,3.792 3.863,4.229 2.898,4.967 2.114,6.007 1.329,7.047 0.937,8.233 0.937,9.564 c 0,1.457 0.423,2.712 1.27,3.766 0.847,1.054 2.013,1.841 3.498,2.36 1.486,0.52 3.478,0.781 5.977,0.781 2.637,0 4.584,-0.202 5.84,-0.604 1.256,-0.403 2.304,-1.028 3.145,-1.874 0.839,-0.847 1.537,-1.992 2.092,-3.436 L 14.722,9.766 c -0.209,0.708 -0.556,1.228 -1.042,1.562 -0.666,0.444 -1.471,0.666 -2.415,0.666 -0.958,0 -1.655,-0.17 -2.092,-0.51 -0.438,-0.339 -0.657,-0.752 -0.657,-1.237 0,-0.54 0.278,-0.949 0.833,-1.226 0.556,-0.278 1.763,-0.527 3.623,-0.749 2.818,-0.319 4.915,-0.763 6.289,-1.331 1.374,-0.569 2.426,-1.38 3.155,-2.434 0.729,-1.054 1.093,-2.212 1.093,-3.474 0,-1.276 -0.385,-2.517 -1.156,-3.723 -0.77,-1.207 -1.985,-2.167 -3.644,-2.881 -1.659,-0.714 -3.918,-1.071 -6.778,-1.071 -4.039,0 -6.916,0.575 -8.63,1.728 C 1.586,-3.762 0.486,-2.124 0,0" />
          </g>
          <g
             transform="translate(624.7566,382.2659)"
             id="g3738">
            <path
               inkscape:connector-curvature="0"
               id="path3740"
               style="fill:#231f20;fill-opacity:1;fill-rule:nonzero;stroke:none"
               d="M 0,0 8.267,-2.499 C 7.711,-4.817 6.837,-6.754 5.643,-8.308 4.449,-9.863 2.967,-11.036 1.197,-11.827 c -1.769,-0.792 -4.022,-1.187 -6.757,-1.187 -3.318,0 -6.028,0.482 -8.131,1.446 -2.103,0.964 -3.918,2.66 -5.445,5.088 -1.527,2.427 -2.291,5.535 -2.291,9.322 0,5.05 1.344,8.931 4.03,11.643 2.686,2.712 6.486,4.068 11.4,4.068 3.845,0 6.868,-0.778 9.068,-2.332 2.2,-1.555 3.835,-3.943 4.904,-7.163 L -0.354,7.205 c -0.292,0.929 -0.597,1.61 -0.916,2.04 -0.528,0.722 -1.174,1.277 -1.937,1.666 -0.763,0.389 -1.617,0.583 -2.561,0.583 -2.138,0 -3.776,-0.86 -4.914,-2.579 -0.861,-1.276 -1.291,-3.279 -1.291,-6.01 0,-3.384 0.513,-5.703 1.541,-6.957 1.027,-1.255 2.47,-1.882 4.331,-1.882 1.804,0 3.168,0.506 4.091,1.52 C -1.086,-3.401 -0.416,-1.93 0,0" />
          </g>
          <g
             transform="translate(652.9713,382.7864)"
             id="g3742">
            <path
               inkscape:connector-curvature="0"
               id="path3744"
               style="fill:#231f20;fill-opacity:1;fill-rule:nonzero;stroke:none"
               d="M 0,0 C -0.167,1.638 -0.608,2.811 -1.322,3.519 -2.037,4.227 -2.978,4.581 -4.144,4.581 -5.49,4.581 -6.567,4.046 -7.371,2.978 -7.885,2.311 -8.211,1.319 -8.35,0 Z M 8.621,-4.06 H -8.371 c 0.153,-1.361 0.521,-2.374 1.104,-3.041 0.819,-0.957 1.887,-1.436 3.207,-1.436 0.832,0 1.624,0.208 2.373,0.624 0.458,0.264 0.951,0.729 1.479,1.396 l 8.35,-0.771 c -1.278,-2.221 -2.819,-3.814 -4.623,-4.779 -1.805,-0.964 -4.394,-1.447 -7.767,-1.447 -2.929,0 -5.234,0.413 -6.913,1.239 -1.68,0.826 -3.071,2.138 -4.175,3.936 -1.103,1.797 -1.655,3.911 -1.655,6.34 0,3.457 1.107,6.254 3.321,8.392 2.214,2.137 5.271,3.206 9.172,3.206 3.165,0 5.664,-0.479 7.496,-1.436 C 4.831,7.205 6.226,5.816 7.184,3.998 8.142,2.179 8.621,-0.187 8.621,-3.103 Z" />
          </g>
          <g
             transform="translate(665.4857,391.8859)"
             id="g3746">
            <path
               inkscape:connector-curvature="0"
               id="path3748"
               style="fill:#231f20;fill-opacity:1;fill-rule:nonzero;stroke:none"
               d="m 0,0 h 7.892 v -3.602 c 1.179,1.471 2.374,2.523 3.581,3.154 1.208,0.632 2.679,0.948 4.415,0.948 2.345,0 4.181,-0.698 5.508,-2.093 1.325,-1.395 1.988,-3.55 1.988,-6.465 v -14.056 h -8.517 v 12.161 c 0,1.388 -0.257,2.37 -0.77,2.946 -0.514,0.576 -1.236,0.864 -2.166,0.864 -1.027,0 -1.86,-0.389 -2.498,-1.166 -0.639,-0.777 -0.958,-2.172 -0.958,-4.185 v -10.62 H 0 Z" />
          </g>
          <g
             transform="translate(704.1534,400.2983)"
             id="g3750">
            <path
               inkscape:connector-curvature="0"
               id="path3752"
               style="fill:#231f20;fill-opacity:1;fill-rule:nonzero;stroke:none"
               d="m 0,0 v -8.412 h 4.664 v -6.205 H 0 v -7.835 c 0,-0.942 0.09,-1.566 0.271,-1.87 0.277,-0.471 0.763,-0.707 1.457,-0.707 0.625,0 1.499,0.18 2.624,0.541 l 0.625,-5.851 c -2.097,-0.458 -4.054,-0.687 -5.872,-0.687 -2.111,0 -3.665,0.271 -4.665,0.811 -0.999,0.541 -1.739,1.362 -2.217,2.465 -0.479,1.102 -0.719,2.887 -0.719,5.355 v 7.778 h -3.123 v 6.205 h 3.123 v 4.06 z" />
          </g>
          <g
             transform="translate(728.7866,382.7864)"
             id="g3754">
            <path
               inkscape:connector-curvature="0"
               id="path3756"
               style="fill:#231f20;fill-opacity:1;fill-rule:nonzero;stroke:none"
               d="M 0,0 C -0.167,1.638 -0.607,2.811 -1.322,3.519 -2.037,4.227 -2.978,4.581 -4.144,4.581 -5.49,4.581 -6.566,4.046 -7.371,2.978 -7.885,2.311 -8.211,1.319 -8.35,0 Z M 8.621,-4.06 H -8.371 c 0.153,-1.361 0.521,-2.374 1.104,-3.041 0.819,-0.957 1.887,-1.436 3.207,-1.436 0.833,0 1.624,0.208 2.373,0.624 0.458,0.264 0.951,0.729 1.479,1.396 l 8.35,-0.771 c -1.278,-2.221 -2.819,-3.814 -4.623,-4.779 -1.805,-0.964 -4.394,-1.447 -7.767,-1.447 -2.929,0 -5.234,0.413 -6.913,1.239 -1.68,0.826 -3.071,2.138 -4.175,3.936 -1.103,1.797 -1.655,3.911 -1.655,6.34 0,3.457 1.107,6.254 3.321,8.392 2.214,2.137 5.271,3.206 9.172,3.206 3.165,0 5.664,-0.479 7.496,-1.436 C 4.831,7.205 6.226,5.816 7.184,3.998 8.142,2.179 8.621,-0.187 8.621,-3.103 Z" />
          </g>
          <g
             transform="translate(741.3843,391.8859)"
             id="g3758">
            <path
               inkscape:connector-curvature="0"
               id="path3760"
               style="fill:#231f20;fill-opacity:1;fill-rule:nonzero;stroke:none"
               d="m 0,0 h 7.933 v -3.623 c 0.764,1.568 1.552,2.648 2.364,3.238 0.812,0.59 1.814,0.885 3.009,0.885 1.249,0 2.616,-0.389 4.102,-1.166 l -2.624,-6.039 c -0.999,0.417 -1.791,0.625 -2.374,0.625 -1.111,0 -1.971,-0.458 -2.582,-1.374 -0.874,-1.292 -1.312,-3.707 -1.312,-7.247 v -7.413 H 0 Z" />
          </g>
          <g
             transform="translate(298.446,356.4747)"
             id="g3762">
            <path
               inkscape:connector-curvature="0"
               id="path3764"
               style="fill:#231f20;fill-opacity:1;fill-rule:nonzero;stroke:none"
               d="m 0,0 h 7.583 v -8.588 h 8.286 V 0 h 7.617 v -24.541 h -7.617 v 9.927 H 7.583 v -9.927 H 0 Z" />
          </g>
          <g
             transform="translate(339.3245,342.3966)"
             id="g3766">
            <path
               inkscape:connector-curvature="0"
               id="path3768"
               style="fill:#231f20;fill-opacity:1;fill-rule:nonzero;stroke:none"
               d="m 0,0 c -0.134,1.317 -0.488,2.26 -1.063,2.829 -0.575,0.569 -1.331,0.854 -2.268,0.854 -1.083,0 -1.948,-0.43 -2.595,-1.289 C -6.339,1.858 -6.601,1.06 -6.713,0 Z M 6.93,-3.264 H -6.729 c 0.122,-1.094 0.418,-1.909 0.887,-2.444 0.658,-0.77 1.517,-1.155 2.578,-1.155 0.669,0 1.305,0.167 1.908,0.502 0.368,0.212 0.764,0.586 1.189,1.121 L 6.545,-5.859 C 5.518,-7.645 4.28,-8.925 2.829,-9.701 c -1.451,-0.775 -3.532,-1.163 -6.244,-1.163 -2.355,0 -4.207,0.332 -5.558,0.996 -1.35,0.664 -2.469,1.718 -3.356,3.164 -0.887,1.445 -1.331,3.144 -1.331,5.097 0,2.779 0.89,5.027 2.67,6.746 1.78,1.719 4.238,2.578 7.374,2.578 2.545,0 4.553,-0.385 6.027,-1.155 C 3.884,5.792 5.005,4.676 5.775,3.214 6.545,1.752 6.93,-0.151 6.93,-2.494 Z" />
          </g>
          <g
             transform="translate(349.4521,349.7119)"
             id="g3770">
            <path
               inkscape:connector-curvature="0"
               id="path3772"
               style="fill:#231f20;fill-opacity:1;fill-rule:nonzero;stroke:none"
               d="m 0,0 h 6.378 v -2.913 c 0.614,1.261 1.247,2.129 1.9,2.603 0.653,0.475 1.459,0.712 2.419,0.712 1.004,0 2.103,-0.313 3.297,-0.938 L 11.885,-5.39 c -0.803,0.335 -1.439,0.502 -1.908,0.502 -0.893,0 -1.585,-0.368 -2.076,-1.105 -0.703,-1.038 -1.054,-2.98 -1.054,-5.825 v -5.96 H 0 Z" />
          </g>
          <g
             transform="translate(371.4649,340.8732)"
             id="g3774">
            <path
               inkscape:connector-curvature="0"
               id="path3776"
               style="fill:#231f20;fill-opacity:1;fill-rule:nonzero;stroke:none"
               d="m 0,0 c 0,-1.529 0.287,-2.637 0.862,-3.323 0.575,-0.686 1.303,-1.029 2.185,-1.029 0.814,0 1.498,0.337 2.05,1.012 0.553,0.676 0.829,1.811 0.829,3.407 0,1.406 -0.271,2.438 -0.812,3.097 C 4.573,3.822 3.917,4.151 3.147,4.151 2.221,4.151 1.465,3.808 0.879,3.122 0.293,2.436 0,1.395 0,0 M -6.83,15.602 H 0.05 V 7.098 C 0.731,7.812 1.504,8.347 2.369,8.705 3.233,9.062 4.19,9.24 5.24,9.24 c 2.164,0 3.956,-0.778 5.373,-2.335 1.417,-1.557 2.126,-3.791 2.126,-6.704 0,-1.942 -0.324,-3.652 -0.971,-5.131 -0.647,-1.479 -1.543,-2.583 -2.687,-3.314 -1.144,-0.731 -2.413,-1.097 -3.808,-1.097 -1.194,0 -2.288,0.257 -3.281,0.77 -0.748,0.402 -1.562,1.155 -2.444,2.26 V -8.939 H -6.83 Z" />
          </g>
          <g
             transform="translate(386.2629,336.8724)"
             id="g3778">
            <path
               inkscape:connector-curvature="0"
               id="path3780"
               style="fill:#231f20;fill-opacity:1;fill-rule:nonzero;stroke:none"
               d="m 0,0 6.763,0.636 c 0.279,-0.803 0.669,-1.378 1.172,-1.724 0.502,-0.346 1.171,-0.519 2.008,-0.519 0.915,0 1.624,0.195 2.126,0.585 0.391,0.29 0.586,0.652 0.586,1.086 0,0.49 -0.257,0.87 -0.77,1.137 C 11.517,1.39 10.54,1.624 8.956,1.903 6.59,2.315 4.947,2.697 4.026,3.048 3.105,3.399 2.329,3.993 1.699,4.829 1.068,5.665 0.753,6.619 0.753,7.689 c 0,1.171 0.341,2.18 1.021,3.027 0.681,0.847 1.618,1.48 2.813,1.898 1.194,0.418 2.795,0.627 4.804,0.627 2.12,0 3.685,-0.162 4.696,-0.485 1.009,-0.324 1.852,-0.826 2.527,-1.507 0.675,-0.681 1.236,-1.601 1.683,-2.762 L 11.835,7.851 C 11.668,8.42 11.389,8.839 10.998,9.106 10.462,9.464 9.815,9.642 9.056,9.642 8.286,9.642 7.725,9.506 7.374,9.233 7.022,8.959 6.847,8.628 6.847,8.238 6.847,7.803 7.07,7.475 7.516,7.252 7.962,7.029 8.933,6.829 10.429,6.65 c 2.265,-0.256 3.95,-0.613 5.055,-1.07 1.105,-0.457 1.95,-1.109 2.536,-1.957 0.586,-0.847 0.879,-1.778 0.879,-2.792 0,-1.026 -0.309,-2.024 -0.929,-2.994 -0.619,-0.97 -1.596,-1.742 -2.929,-2.316 -1.334,-0.574 -3.15,-0.861 -5.449,-0.861 -3.248,0 -5.561,0.463 -6.939,1.389 C 1.275,-3.024 0.391,-1.707 0,0" />
          </g>
          <g
             transform="translate(431.9627,340.3711)"
             id="g3782">
            <path
               inkscape:connector-curvature="0"
               id="path3784"
               style="fill:#231f20;fill-opacity:1;fill-rule:nonzero;stroke:none"
               d="m 0,0 c -0.937,-0.335 -1.914,-0.631 -2.929,-0.887 -1.385,-0.368 -2.26,-0.731 -2.629,-1.088 -0.379,-0.369 -0.569,-0.787 -0.569,-1.256 0,-0.535 0.187,-0.974 0.561,-1.314 0.374,-0.34 0.923,-0.51 1.649,-0.51 0.758,0 1.464,0.184 2.117,0.552 0.653,0.368 1.116,0.817 1.39,1.348 0.273,0.529 0.41,1.219 0.41,2.067 z m -5.909,3.582 -6.512,0.687 c 0.245,1.138 0.6,2.034 1.063,2.686 0.463,0.653 1.13,1.22 2,1.699 0.625,0.346 1.485,0.614 2.578,0.804 1.094,0.19 2.277,0.285 3.549,0.285 2.042,0 3.683,-0.115 4.922,-0.344 C 2.929,9.171 3.962,8.693 4.788,7.968 5.368,7.466 5.825,6.754 6.16,5.834 6.495,4.913 6.662,4.034 6.662,3.197 v -7.851 c 0,-0.837 0.053,-1.492 0.159,-1.967 C 6.927,-7.095 7.159,-7.7 7.516,-8.437 H 1.122 c -0.257,0.458 -0.425,0.806 -0.503,1.046 -0.078,0.24 -0.156,0.617 -0.234,1.13 -0.893,-0.859 -1.78,-1.473 -2.662,-1.841 -1.205,-0.491 -2.606,-0.737 -4.201,-0.737 -2.121,0 -3.731,0.491 -4.83,1.473 -1.099,0.982 -1.649,2.193 -1.649,3.633 0,1.35 0.396,2.461 1.189,3.331 0.792,0.871 2.254,1.518 4.386,1.942 2.555,0.513 4.212,0.873 4.971,1.08 C -1.652,2.826 -0.848,3.097 0,3.432 0,4.269 -0.173,4.855 -0.519,5.189 -0.865,5.524 -1.473,5.692 -2.344,5.692 -3.46,5.692 -4.297,5.513 -4.855,5.156 -5.29,4.877 -5.641,4.352 -5.909,3.582" />
          </g>
          <g
             transform="translate(442.7097,349.7119)"
             id="g3786">
            <path
               inkscape:connector-curvature="0"
               id="path3788"
               style="fill:#231f20;fill-opacity:1;fill-rule:nonzero;stroke:none"
               d="m 0,0 h 6.344 v -2.896 c 0.949,1.183 1.909,2.028 2.88,2.536 0.971,0.508 2.153,0.762 3.548,0.762 1.886,0 3.362,-0.561 4.428,-1.683 1.066,-1.121 1.599,-2.854 1.599,-5.197 v -11.3 h -6.847 v 9.776 c 0,1.116 -0.206,1.906 -0.619,2.369 -0.413,0.463 -0.994,0.695 -1.741,0.695 -0.826,0 -1.496,-0.313 -2.009,-0.938 C 7.07,-6.501 6.813,-7.622 6.813,-9.24 v -8.538 H 0 Z" />
          </g>
          <g
             transform="translate(477.4615,340.8732)"
             id="g3790">
            <path
               inkscape:connector-curvature="0"
               id="path3792"
               style="fill:#231f20;fill-opacity:1;fill-rule:nonzero;stroke:none"
               d="M 0,0 C 0,1.395 -0.296,2.436 -0.887,3.122 -1.479,3.808 -2.226,4.151 -3.13,4.151 -3.923,4.151 -4.587,3.822 -5.122,3.164 -5.658,2.505 -5.926,1.4 -5.926,-0.151 c 0,-1.451 0.277,-2.513 0.829,-3.189 0.552,-0.675 1.235,-1.012 2.05,-1.012 0.871,0 1.596,0.34 2.177,1.021 C -0.29,-2.651 0,-1.54 0,0 M 6.83,15.602 V -8.939 H 0.452 v 2.628 c -0.893,-1.116 -1.707,-1.869 -2.444,-2.26 -0.982,-0.513 -2.076,-0.77 -3.281,-0.77 -2.422,0 -4.272,0.921 -5.549,2.762 -1.278,1.842 -1.917,4.079 -1.917,6.713 0,2.946 0.706,5.2 2.117,6.763 1.412,1.562 3.206,2.343 5.382,2.343 1.06,0 2.023,-0.178 2.888,-0.535 0.865,-0.358 1.632,-0.893 2.302,-1.607 v 8.504 z" />
          </g>
          <g
             transform="translate(513.8424,341.2917)"
             id="g3794">
            <path
               inkscape:connector-curvature="0"
               id="path3796"
               style="fill:#231f20;fill-opacity:1;fill-rule:nonzero;stroke:none"
               d="M 0,0 -2.709,8.822 -5.389,0 Z m 1.573,-5.307 h -8.609 l -1.196,-4.051 h -7.743 l 9.224,24.541 H 1.52 L 10.742,-9.358 H 2.801 Z" />
          </g>
          <g
             transform="translate(539.8005,338.8979)"
             id="g3798">
            <path
               inkscape:connector-curvature="0"
               id="path3800"
               style="fill:#231f20;fill-opacity:1;fill-rule:nonzero;stroke:none"
               d="M 0,0 6.478,-0.737 C 6.121,-2.087 5.535,-3.256 4.721,-4.244 3.906,-5.231 2.865,-5.999 1.598,-6.545 0.332,-7.092 -1.278,-7.366 -3.231,-7.366 c -1.886,0 -3.456,0.176 -4.712,0.527 -1.255,0.351 -2.335,0.92 -3.239,1.706 -0.904,0.786 -1.613,1.709 -2.126,2.768 -0.514,1.059 -0.77,2.464 -0.77,4.215 0,1.828 0.312,3.35 0.937,4.566 0.458,0.892 1.083,1.692 1.875,2.4 0.792,0.708 1.607,1.234 2.444,1.58 1.328,0.546 3.03,0.82 5.106,0.82 2.901,0 5.114,-0.519 6.637,-1.557 C 4.444,8.621 5.513,7.103 6.127,5.106 L -0.285,4.252 c -0.2,0.759 -0.566,1.331 -1.096,1.716 -0.53,0.385 -1.242,0.577 -2.134,0.577 -1.128,0 -2.04,-0.404 -2.737,-1.211 -0.698,-0.808 -1.047,-2.031 -1.047,-3.668 0,-1.46 0.346,-2.568 1.038,-3.325 0.692,-0.758 1.574,-1.137 2.645,-1.137 0.893,0 1.643,0.229 2.252,0.687 C -0.756,-1.652 -0.301,-0.949 0,0" />
          </g>
          <g
             transform="translate(568.141,331.9342)"
             id="g3802">
            <path
               inkscape:connector-curvature="0"
               id="path3804"
               style="fill:#231f20;fill-opacity:1;fill-rule:nonzero;stroke:none"
               d="M 0,0 H -6.361 V 2.879 C -7.31,1.696 -8.267,0.854 -9.232,0.352 c -0.965,-0.503 -2.151,-0.754 -3.557,-0.754 -1.875,0 -3.346,0.561 -4.411,1.683 -1.066,1.121 -1.599,2.848 -1.599,5.181 v 11.316 h 6.847 V 8.002 c 0,-1.116 0.206,-1.909 0.619,-2.377 0.413,-0.469 0.993,-0.704 1.741,-0.704 0.815,0 1.482,0.313 2,0.938 0.52,0.625 0.779,1.746 0.779,3.365 v 8.554 H 0 Z" />
          </g>
          <g
             transform="translate(579.139,340.7728)"
             id="g3806">
            <path
               inkscape:connector-curvature="0"
               id="path3808"
               style="fill:#231f20;fill-opacity:1;fill-rule:nonzero;stroke:none"
               d="m 0,0 c 0,-1.406 0.296,-2.45 0.887,-3.13 0.591,-0.681 1.339,-1.021 2.243,-1.021 0.792,0 1.457,0.326 1.992,0.979 0.536,0.653 0.804,1.76 0.804,3.323 0,1.439 -0.279,2.497 -0.837,3.172 C 4.531,3.998 3.85,4.336 3.047,4.336 2.176,4.336 1.451,3.995 0.87,3.314 0.29,2.634 0,1.529 0,0 m -6.83,-15.601 v 24.54 h 6.378 V 6.311 c 0.882,1.105 1.691,1.852 2.427,2.243 0.993,0.524 2.093,0.787 3.298,0.787 2.377,0 4.216,-0.91 5.516,-2.729 1.3,-1.819 1.95,-4.068 1.95,-6.746 0,-2.957 -0.709,-5.214 -2.126,-6.771 C 9.195,-8.462 7.404,-9.24 5.24,-9.24 c -1.05,0 -2.007,0.178 -2.872,0.535 -0.864,0.357 -1.637,0.888 -2.318,1.591 v -8.487 z" />
          </g>
          <g
             transform="translate(613.8741,331.9342)"
             id="g3810">
            <path
               inkscape:connector-curvature="0"
               id="path3812"
               style="fill:#231f20;fill-opacity:1;fill-rule:nonzero;stroke:none"
               d="M 0,0 H -6.361 V 2.879 C -7.31,1.696 -8.267,0.854 -9.232,0.352 c -0.965,-0.503 -2.151,-0.754 -3.557,-0.754 -1.875,0 -3.346,0.561 -4.411,1.683 -1.066,1.121 -1.599,2.848 -1.599,5.181 v 11.316 h 6.847 V 8.002 c 0,-1.116 0.206,-1.909 0.619,-2.377 0.413,-0.469 0.993,-0.704 1.741,-0.704 0.815,0 1.482,0.313 2,0.938 0.52,0.625 0.779,1.746 0.779,3.365 v 8.554 H 0 Z" />
          </g>
          <g
             transform="translate(618.0088,349.7119)"
             id="g3814">
            <path
               inkscape:connector-curvature="0"
               id="path3816"
               style="fill:#231f20;fill-opacity:1;fill-rule:nonzero;stroke:none"
               d="m 0,0 h 6.344 v -2.896 c 0.949,1.183 1.909,2.028 2.88,2.536 0.971,0.508 2.153,0.762 3.548,0.762 1.886,0 3.362,-0.561 4.428,-1.683 1.066,-1.121 1.599,-2.854 1.599,-5.197 v -11.3 h -6.847 v 9.776 c 0,1.116 -0.206,1.906 -0.619,2.369 -0.413,0.463 -0.994,0.695 -1.741,0.695 -0.826,0 -1.496,-0.313 -2.009,-0.938 C 7.07,-6.501 6.813,-7.622 6.813,-9.24 v -8.538 H 0 Z" />
          </g>
          <g
             transform="translate(654.1333,338.8979)"
             id="g3818">
            <path
               inkscape:connector-curvature="0"
               id="path3820"
               style="fill:#231f20;fill-opacity:1;fill-rule:nonzero;stroke:none"
               d="M 0,0 6.478,-0.737 C 6.121,-2.087 5.535,-3.256 4.721,-4.244 3.906,-5.231 2.865,-5.999 1.598,-6.545 0.332,-7.092 -1.278,-7.366 -3.231,-7.366 c -1.886,0 -3.456,0.176 -4.712,0.527 -1.255,0.351 -2.335,0.92 -3.239,1.706 -0.904,0.786 -1.613,1.709 -2.126,2.768 -0.514,1.059 -0.77,2.464 -0.77,4.215 0,1.828 0.312,3.35 0.937,4.566 0.458,0.892 1.083,1.692 1.875,2.4 0.792,0.708 1.607,1.234 2.444,1.58 1.328,0.546 3.03,0.82 5.106,0.82 2.901,0 5.114,-0.519 6.637,-1.557 C 4.444,8.621 5.513,7.103 6.127,5.106 L -0.285,4.252 c -0.2,0.759 -0.566,1.331 -1.096,1.716 -0.53,0.385 -1.242,0.577 -2.134,0.577 -1.128,0 -2.04,-0.404 -2.737,-1.211 -0.698,-0.808 -1.047,-2.031 -1.047,-3.668 0,-1.46 0.346,-2.568 1.038,-3.325 0.692,-0.758 1.574,-1.137 2.645,-1.137 0.893,0 1.643,0.229 2.252,0.687 C -0.756,-1.652 -0.301,-0.949 0,0" />
          </g>
          <g
             transform="translate(671.9612,356.4747)"
             id="g3822">
            <path
               inkscape:connector-curvature="0"
               id="path3824"
               style="fill:#231f20;fill-opacity:1;fill-rule:nonzero;stroke:none"
               d="m 0,0 v -6.763 h 3.75 v -4.988 H 0 v -6.299 c 0,-0.757 0.072,-1.258 0.218,-1.503 0.223,-0.379 0.613,-0.568 1.171,-0.568 0.503,0 1.206,0.144 2.11,0.434 l 0.502,-4.703 c -1.686,-0.368 -3.259,-0.552 -4.721,-0.552 -1.696,0 -2.946,0.217 -3.75,0.652 -0.803,0.435 -1.397,1.095 -1.783,1.981 -0.384,0.886 -0.577,2.321 -0.577,4.305 v 6.253 h -2.511 v 4.988 h 2.511 v 3.264 z" />
          </g>
          <g
             transform="translate(697.6902,331.9342)"
             id="g3826">
            <path
               inkscape:connector-curvature="0"
               id="path3828"
               style="fill:#231f20;fill-opacity:1;fill-rule:nonzero;stroke:none"
               d="M 0,0 H -6.361 V 2.879 C -7.31,1.696 -8.267,0.854 -9.232,0.352 c -0.965,-0.503 -2.151,-0.754 -3.557,-0.754 -1.875,0 -3.346,0.561 -4.411,1.683 -1.066,1.121 -1.599,2.848 -1.599,5.181 v 11.316 h 6.847 V 8.002 c 0,-1.116 0.206,-1.909 0.619,-2.377 0.413,-0.469 0.993,-0.704 1.741,-0.704 0.815,0 1.482,0.313 2,0.938 0.52,0.625 0.779,1.746 0.779,3.365 v 8.554 H 0 Z" />
          </g>
          <g
             transform="translate(701.8919,349.7119)"
             id="g3830">
            <path
               inkscape:connector-curvature="0"
               id="path3832"
               style="fill:#231f20;fill-opacity:1;fill-rule:nonzero;stroke:none"
               d="m 0,0 h 6.378 v -2.913 c 0.614,1.261 1.247,2.129 1.9,2.603 0.652,0.475 1.459,0.712 2.419,0.712 1.004,0 2.103,-0.313 3.298,-0.938 l -2.11,-4.854 c -0.803,0.335 -1.439,0.502 -1.908,0.502 -0.893,0 -1.585,-0.368 -2.076,-1.105 -0.703,-1.038 -1.054,-2.98 -1.054,-5.825 v -5.96 H 0 Z" />
          </g>
          <g
             transform="translate(730.3998,342.3966)"
             id="g3834">
            <path
               inkscape:connector-curvature="0"
               id="path3836"
               style="fill:#231f20;fill-opacity:1;fill-rule:nonzero;stroke:none"
               d="m 0,0 c -0.134,1.317 -0.488,2.26 -1.063,2.829 -0.575,0.569 -1.331,0.854 -2.268,0.854 -1.083,0 -1.948,-0.43 -2.595,-1.289 C -6.339,1.858 -6.601,1.06 -6.713,0 Z M 6.93,-3.264 H -6.729 c 0.122,-1.094 0.418,-1.909 0.887,-2.444 0.658,-0.77 1.517,-1.155 2.578,-1.155 0.669,0 1.305,0.167 1.908,0.502 0.368,0.212 0.764,0.586 1.189,1.121 L 6.545,-5.859 C 5.518,-7.645 4.28,-8.925 2.829,-9.701 c -1.451,-0.775 -3.532,-1.163 -6.244,-1.163 -2.355,0 -4.207,0.332 -5.558,0.996 -1.35,0.664 -2.469,1.718 -3.356,3.164 -0.887,1.445 -1.331,3.144 -1.331,5.097 0,2.779 0.89,5.027 2.671,6.746 1.779,1.719 4.237,2.578 7.373,2.578 2.545,0 4.553,-0.385 6.027,-1.155 C 3.884,5.792 5.005,4.676 5.775,3.214 6.545,1.752 6.93,-0.151 6.93,-2.494 Z" />
          </g>
          <g
             transform="translate(371.6376,312.879)"
             id="g3838">
            <path
               inkscape:connector-curvature="0"
               id="path3840"
               style="fill:#231f20;fill-opacity:1;fill-rule:nonzero;stroke:none"
               d="m 0,0 h 8.341 v -14.633 c 0,-3.073 -0.272,-5.411 -0.817,-7.014 -0.545,-1.604 -1.642,-2.962 -3.289,-4.076 -1.647,-1.114 -3.757,-1.671 -6.33,-1.671 -2.719,0 -4.825,0.367 -6.32,1.102 -1.494,0.735 -2.649,1.81 -3.463,3.225 -0.815,1.415 -1.295,3.163 -1.442,5.245 l 7.955,1.084 c 0.012,-1.188 0.116,-2.07 0.312,-2.645 0.196,-0.576 0.527,-1.042 0.993,-1.397 0.318,-0.233 0.771,-0.349 1.359,-0.349 0.931,0 1.614,0.346 2.049,1.037 C -0.218,-19.4 0,-18.235 0,-16.595 Z" />
          </g>
          <g
             transform="translate(398.113,297.4274)"
             id="g3842">
            <path
               inkscape:connector-curvature="0"
               id="path3844"
               style="fill:#231f20;fill-opacity:1;fill-rule:nonzero;stroke:none"
               d="M 0,0 C -0.147,1.445 -0.536,2.48 -1.167,3.105 -1.798,3.73 -2.627,4.042 -3.656,4.042 -4.844,4.042 -5.794,3.57 -6.504,2.627 -6.957,2.039 -7.245,1.164 -7.368,0 Z M 7.606,-3.583 H -7.386 c 0.135,-1.2 0.459,-2.094 0.974,-2.682 0.723,-0.845 1.665,-1.268 2.829,-1.268 0.735,0 1.433,0.184 2.095,0.551 0.404,0.233 0.839,0.643 1.304,1.231 l 7.368,-0.68 C 6.057,-8.39 4.697,-9.796 3.105,-10.647 c -1.592,-0.851 -3.877,-1.277 -6.853,-1.277 -2.585,0 -4.618,0.365 -6.1,1.093 -1.482,0.729 -2.71,1.886 -3.684,3.473 -0.973,1.586 -1.46,3.451 -1.46,5.594 0,3.05 0.976,5.518 2.93,7.404 1.954,1.887 4.651,2.83 8.093,2.83 2.793,0 4.998,-0.423 6.615,-1.268 C 4.263,6.357 5.494,5.132 6.339,3.528 7.184,1.923 7.606,-0.165 7.606,-2.738 Z" />
          </g>
          <g
             transform="translate(409.1552,305.4563)"
             id="g3846">
            <path
               inkscape:connector-curvature="0"
               id="path3848"
               style="fill:#231f20;fill-opacity:1;fill-rule:nonzero;stroke:none"
               d="m 0,0 h 6.963 v -3.179 c 1.041,1.299 2.095,2.226 3.161,2.784 1.065,0.557 2.363,0.836 3.895,0.836 2.069,0 3.689,-0.616 4.859,-1.847 1.17,-1.231 1.755,-3.132 1.755,-5.704 v -12.402 h -7.515 v 10.73 c 0,1.224 -0.227,2.091 -0.679,2.6 -0.453,0.508 -1.091,0.762 -1.911,0.762 -0.907,0 -1.642,-0.343 -2.205,-1.029 C 7.76,-7.135 7.478,-8.366 7.478,-10.142 v -9.37 H 0 Z" />
          </g>
          <g
             transform="translate(434.2528,305.4563)"
             id="g3850">
            <path
               inkscape:connector-curvature="0"
               id="path3852"
               style="fill:#231f20;fill-opacity:1;fill-rule:nonzero;stroke:none"
               d="m 0,0 h 6.963 v -3.179 c 1.041,1.299 2.095,2.226 3.16,2.784 1.066,0.557 2.364,0.836 3.896,0.836 2.069,0 3.689,-0.616 4.859,-1.847 1.17,-1.231 1.755,-3.132 1.755,-5.704 v -12.402 h -7.515 v 10.73 c 0,1.224 -0.227,2.091 -0.68,2.6 -0.453,0.508 -1.09,0.762 -1.91,0.762 -0.907,0 -1.642,-0.343 -2.205,-1.029 -0.564,-0.686 -0.845,-1.917 -0.845,-3.693 v -9.37 H 0 Z" />
          </g>
          <g
             transform="translate(457.2006,305.4563)"
             id="g3854">
            <path
               inkscape:connector-curvature="0"
               id="path3856"
               style="fill:#231f20;fill-opacity:1;fill-rule:nonzero;stroke:none"
               d="M 0,0 H 7.89 L 11.915,-12.99 15.653,0 h 7.368 L 15.28,-20.848 c -0.882,-2.378 -1.782,-3.984 -2.7,-4.818 -1.298,-1.176 -3.275,-1.765 -5.932,-1.765 -1.077,0 -2.742,0.147 -4.995,0.441 l -0.587,5.218 c 1.076,-0.343 2.276,-0.514 3.597,-0.514 0.882,0 1.594,0.202 2.139,0.607 0.544,0.405 1.007,1.128 1.386,2.17 z" />
          </g>
          <g
             transform="translate(513.3116,296.968)"
             id="g3858">
            <path
               inkscape:connector-curvature="0"
               id="path3860"
               style="fill:#231f20;fill-opacity:1;fill-rule:nonzero;stroke:none"
               d="M 0,0 7.294,-2.205 C 6.804,-4.25 6.032,-5.959 4.979,-7.331 3.925,-8.703 2.618,-9.738 1.056,-10.436 c -1.561,-0.698 -3.549,-1.047 -5.962,-1.047 -2.927,0 -5.319,0.425 -7.174,1.276 -1.856,0.851 -3.457,2.347 -4.805,4.489 -1.347,2.142 -2.021,4.884 -2.021,8.226 0,4.455 1.185,7.88 3.555,10.273 2.37,2.393 5.724,3.589 10.06,3.589 3.392,0 6.059,-0.686 8.001,-2.057 1.941,-1.372 3.383,-3.479 4.327,-6.321 L -0.312,6.357 c -0.258,0.821 -0.527,1.421 -0.809,1.801 -0.466,0.636 -1.035,1.126 -1.708,1.469 -0.674,0.343 -1.427,0.515 -2.26,0.515 -1.887,0 -3.332,-0.759 -4.336,-2.276 -0.76,-1.125 -1.139,-2.893 -1.139,-5.303 0,-2.985 0.452,-5.032 1.359,-6.139 0.907,-1.107 2.18,-1.66 3.822,-1.66 1.592,0 2.795,0.447 3.61,1.341 C -0.959,-3.001 -0.367,-1.703 0,0" />
          </g>
          <g
             transform="translate(524.1517,312.879)"
             id="g3862">
            <path
               inkscape:connector-curvature="0"
               id="path3864"
               style="fill:#231f20;fill-opacity:1;fill-rule:nonzero;stroke:none"
               d="m 0,0 h 7.478 v -9.921 c 1.016,1.053 2.027,1.806 3.031,2.26 1.004,0.452 2.193,0.679 3.565,0.679 2.033,0 3.634,-0.618 4.804,-1.855 1.17,-1.238 1.755,-3.136 1.755,-5.696 v -12.402 h -7.515 v 10.73 c 0,1.225 -0.227,2.092 -0.68,2.6 -0.453,0.508 -1.09,0.762 -1.91,0.762 -0.907,0 -1.642,-0.343 -2.205,-1.029 -0.564,-0.686 -0.845,-1.917 -0.845,-3.693 v -9.37 H 0 Z" />
          </g>
          <g
             transform="translate(555.8266,295.6635)"
             id="g3866">
            <path
               inkscape:connector-curvature="0"
               id="path3868"
               style="fill:#231f20;fill-opacity:1;fill-rule:nonzero;stroke:none"
               d="m 0,0 c 0,-1.739 0.352,-3.025 1.056,-3.858 0.705,-0.833 1.59,-1.25 2.655,-1.25 1.078,0 1.963,0.411 2.655,1.231 0.692,0.821 1.038,2.138 1.038,3.95 0,1.691 -0.349,2.949 -1.047,3.776 -0.698,0.827 -1.562,1.24 -2.591,1.24 -1.09,0 -1.99,-0.419 -2.7,-1.258 C 0.355,2.992 0,1.715 0,0 m -7.496,-0.018 c 0,2.976 1.004,5.429 3.013,7.358 2.009,1.929 4.722,2.894 8.139,2.894 3.908,0 6.859,-1.133 8.856,-3.399 1.605,-1.826 2.407,-4.073 2.407,-6.743 0,-3.001 -0.996,-5.46 -2.986,-7.377 -1.99,-1.917 -4.743,-2.875 -8.258,-2.875 -3.136,0 -5.672,0.796 -7.607,2.388 -2.376,1.972 -3.564,4.557 -3.564,7.754" />
          </g>
          <g
             transform="translate(587.3913,312.879)"
             id="g3870">
            <path
               inkscape:connector-curvature="0"
               id="path3872"
               style="fill:#231f20;fill-opacity:1;fill-rule:nonzero;stroke:none"
               d="m 0,0 h 8.323 v -20.302 h 12.99 v -6.633 H 0 Z" />
          </g>
          <path
             inkscape:connector-curvature="0"
             id="path3874"
             style="fill:#231f20;fill-opacity:1;fill-rule:nonzero;stroke:none"
             d="m 612.011,293.44 h 7.992 v -7.496 h -7.992 z" />
          <g
             transform="translate(639.8518,296.2148)"
             id="g3876">
            <path
               inkscape:connector-curvature="0"
               id="path3878"
               style="fill:#231f20;fill-opacity:1;fill-rule:nonzero;stroke:none"
               d="M 0,0 -2.973,9.683 -5.915,0 Z m 1.727,-5.824 h -9.45 l -1.312,-4.446 h -8.499 L -7.41,16.664 H 1.669 L 11.79,-10.27 H 3.074 Z" />
          </g>
          <g
             transform="translate(668.3425,293.5874)"
             id="g3880">
            <path
               inkscape:connector-curvature="0"
               id="path3882"
               style="fill:#231f20;fill-opacity:1;fill-rule:nonzero;stroke:none"
               d="M 0,0 7.11,-0.808 C 6.718,-2.29 6.075,-3.574 5.181,-4.658 4.287,-5.742 3.145,-6.584 1.754,-7.184 c -1.39,-0.6 -3.156,-0.9 -5.3,-0.9 -2.07,0 -3.794,0.193 -5.172,0.578 -1.378,0.385 -2.563,1.01 -3.555,1.872 -0.992,0.863 -1.77,1.876 -2.334,3.038 -0.563,1.163 -0.845,2.705 -0.845,4.626 0,2.007 0.343,3.678 1.029,5.012 0.502,0.979 1.188,1.857 2.058,2.634 0.87,0.777 1.764,1.355 2.682,1.734 1.458,0.6 3.326,0.9 5.604,0.9 3.185,0 5.613,-0.57 7.285,-1.709 C 4.878,9.462 6.051,7.796 6.724,5.604 L -0.312,4.667 c -0.221,0.833 -0.622,1.46 -1.204,1.883 -0.582,0.423 -1.362,0.634 -2.342,0.634 -1.237,0 -2.239,-0.443 -3.004,-1.33 -0.766,-0.886 -1.149,-2.228 -1.149,-4.026 0,-1.601 0.38,-2.818 1.139,-3.649 0.76,-0.832 1.728,-1.247 2.903,-1.247 0.98,0 1.804,0.251 2.472,0.753 C -0.83,-1.813 -0.331,-1.041 0,0" />
          </g>
          <g
             transform="translate(199.8196,446.4491)"
             id="g3884">
            <path
               inkscape:connector-curvature="0"
               id="path3886"
               style="fill:#493516;fill-opacity:1;fill-rule:nonzero;stroke:none"
               d="m 0,0 c 0,0 71.166,-20.515 65.477,-101.387 0,0 0.538,-51.798 -55.149,-77.362 0,0 -31.022,-11.202 -54.339,-6.489 0,0 49.71,11.033 46.133,56.564 0,0 -2.396,16.695 -19.835,28.767 0,0 -6.676,5.545 -19.359,10.321 C -63.949,-85.34 -97.9,-44.673 -46.748,-4.2 -31.473,3.305 -23.246,6.664 0,0" />
          </g>
          <g
             transform="translate(182.2763,399.1412)"
             id="g3888">
            <path
               inkscape:connector-curvature="0"
               id="path3890"
               style="fill:#000000;fill-opacity:1;fill-rule:nonzero;stroke:none"
               d="m 0,0 c 2.518,7.792 -1.757,16.15 -9.549,18.668 -7.792,2.518 -16.149,-1.757 -18.668,-9.549 -2.518,-7.792 1.757,-16.15 9.549,-18.668 C -10.876,-12.067 -2.518,-7.792 0,0" />
          </g>
          <g
             transform="translate(139.7553,280.3231)"
             id="g3892">
            <path
               inkscape:connector-curvature="0"
               id="path3894"
               style="fill:#000000;fill-opacity:1;fill-rule:nonzero;stroke:none"
               d="m 0,0 -26.66,94.353 -0.746,-0.278 c -0.886,-0.33 -1.838,0.228 -2.126,1.246 l -12.104,42.837 c -4.388,-4.764 -7.973,-9.565 -10.898,-14.234 L -35.406,83.61 c 0.366,-0.86 0.058,-1.89 -0.687,-2.301 L -37.067,80.771 2.812,-16.477 C 3.521,-16.728 4.225,-16.964 4.921,-17.18 3.813,-13.519 2.237,-8.057 0,0" />
          </g>
          <g
             transform="translate(176.7558,353.0725)"
             id="g3896">
            <path
               inkscape:connector-curvature="0"
               id="path3898"
               style="fill:#000000;fill-opacity:1;fill-rule:nonzero;stroke:none"
               d="m 0,0 c -12.683,4.776 -19.36,10.321 -19.36,10.321 -17.439,12.072 -19.834,28.767 -19.834,28.767 -3.577,45.531 43.3,57.818 43.3,57.818 C -26.243,99.343 -47.4,89.163 -47.4,89.163 -57.409,83.797 -65.593,77.855 -72.299,71.718 l 13.113,-46.409 c 0.288,-1.018 -0.197,-2.112 -1.083,-2.442 l -1.159,-0.432 30.331,-112.658 C -6.776,-97.27 8.884,-83.264 8.884,-83.264 67.797,-41.442 10.872,-1.735 0,0" />
          </g>
          <g
             transform="translate(132.0054,275.837)"
             id="g3900">
            <path
               inkscape:connector-curvature="0"
               id="path3902"
               style="fill:#000000;fill-opacity:1;fill-rule:nonzero;stroke:none"
               d="m 0,0 -32.766,56.825 -0.086,-0.061 c -0.759,-0.538 -1.77,-0.29 -2.257,0.556 L -52.42,87.342 c -0.488,0.846 -0.268,1.967 0.492,2.506 l 1.817,1.289 c 0.759,0.538 1.769,0.29 2.257,-0.556 l 17.311,-30.022 c 0.487,-0.846 0.267,-1.968 -0.492,-2.506 L -31.378,57.81 7.039,-10.897 c 1.221,-0.41 2.121,-0.677 2.642,-0.825 -1.367,2.977 -3.561,8.01 -7.039,16.305 l -33.836,79.638 -0.627,-0.346 c -0.745,-0.411 -1.645,-0.047 -2.01,0.812 l -15.294,35.998 C -57.924,103.08 -57.799,89.037 -57.799,89.037 -62.309,18.457 -9.088,-5.27 6.171,-10.599 4.846,-8.411 2.884,-5.059 0,0" />
          </g>
          <g
             transform="translate(181.6803,301.4018)"
             id="g3904">
            <path
               inkscape:connector-curvature="0"
               id="path3906"
               style="fill:#ffffff;fill-opacity:1;fill-rule:nonzero;stroke:none"
               d="m 0,0 c 2.518,7.792 -1.757,16.15 -9.549,18.668 -7.792,2.518 -16.149,-1.757 -18.668,-9.549 -2.518,-7.792 1.757,-16.15 9.549,-18.668 C -10.876,-12.067 -2.518,-7.792 0,0" />
          </g>
        </g>
      </g>
    </g>
  </g>
</svg>
